# xmcd
#
# Track frame offsets:
# 150
# 42193
# 66027
# 89054
# 144347
# 164995
# 189287
# 217233
# 250528
# 285956
# 311355
#
# Disc length: 4503 seconds
#
#
# Revision: 0
# Processed by: cddbd v1.5.1PL2 Copyright (c) Steve Scherf et al.
# Submitted via: FreeRIP 2.942 
#
DISCID=9d11950b
DTITLE=Allman Brothers Band - Hittin' The Note
DYEAR=2003
DGENRE=Southern Rock
TTITLE0=Firing Line
TTITLE1=High Cost of Low Living
TTITLE2=Desdemona
TTITLE3=Woman Across the River
TTITLE4=Old Before My Time
TTITLE5=Who To Believe
TTITLE6=Maydelle
TTITLE7=Rockin' Horse
TTITLE8=Heart of Stone
TTITLE9=Instrumental Illness
TTITLE10=Old Friend
EXTD=
EXTT0=
EXTT1=
EXTT2=
EXTT3=
EXTT4=
EXTT5=
EXTT6=
EXTT7=
EXTT8=
EXTT9=
EXTT10=
PLAYORDER=
